<?xml version="1.0" encoding="utf-8"?>
<!-- Generator: Adobe Illustrator 28.2.0, SVG Export Plug-In . SVG Version: 6.00 Build 0)  -->
<svg version="1.1" id="Layer_2_00000036227914192138824060000000624300514597956491_"
	 xmlns="http://www.w3.org/2000/svg" xmlns:xlink="http://www.w3.org/1999/xlink" x="0px" y="0px" viewBox="0 0 1191.1 468.5"
	 style="enable-background:new 0 0 1191.1 468.5;" xml:space="preserve">
<style type="text/css">
	.st0{fill:#F58220;}
	.st1{fill-rule:evenodd;clip-rule:evenodd;fill:#F58220;}
	.st2{fill:none;}
</style>
<g id="Layer_1-2">
	<g>
		<g>
			<g>
				<path class="st0" d="M468,295.9c1.6-0.5,3.4-0.8,5.2-0.8c3.2,0,5.6,0.5,7,1.6s2.1,2.9,2,5.5l-1.1,13.8c0,0.8,0,1.5,0.1,2.2
					s0.5,1.3,1.1,1.9l-7.3,1.5c-0.3-0.2-0.6-0.4-0.8-0.6c-0.2-0.2-0.4-0.6-0.5-0.9c-0.1-0.4-0.2-0.9-0.2-1.4c0-0.6,0-1.2,0.1-2.1
					l1.1-12.9c0.1-0.8,0.1-1.7,0.1-2.6c0-0.9-0.1-1.7-0.3-2.5c-0.2-0.8-0.5-1.4-0.9-1.9c-0.4-0.5-1-0.7-1.8-0.7
					c-0.7,0-1.3,0.2-2,0.5c-0.6,0.4-1.2,0.8-1.8,1.4c-0.6,0.6-1.1,1.3-1.5,2.1s-0.9,1.7-1.2,2.6c-0.1,0.3-0.1,0.5-0.1,0.8
					c0,0.6,0.3,0.9,0.9,0.9c0.2,0,0.4,0,0.6-0.1l1.4-0.2c0.1,0,0.3,0,0.6,0s0.4,0.1,0.5,0.3c0.1,0.3,0,0.5-0.2,0.7
					c-0.2,0.2-0.5,0.5-0.7,0.7c-0.3,0.4-0.6,0.9-0.9,1.6s-0.5,1.5-0.8,2.4c-0.2,0.9-0.4,1.9-0.5,2.9s-0.2,2-0.2,3
					c0,1.1,0.2,2.1,0.5,3c0.4,0.9,0.8,1.4,1.5,1.5l-7.9,1.5c-0.3-0.1-0.5-0.3-0.6-0.6c-0.2-0.3-0.3-0.6-0.5-1.1
					c-0.1-0.4-0.3-0.9-0.4-1.3s-0.2-0.9-0.2-1.4v-1.7c0-0.9,0.2-1.8,0.4-2.7s0.5-1.8,0.9-2.7c0.4-0.9,0.8-1.6,1.3-2.3s1-1.2,1.5-1.5
					l-3.2,0.6H459c-0.4,0-0.6-0.2-0.6-0.7c0-0.4,0.1-0.8,0.3-1.4c0.2-0.5,0.5-1.1,0.9-1.7s0.7-1.2,1.1-1.7s0.8-1,1.2-1.4l-0.3,0.1
					l-5.2,0.6c0.1-0.3,0.2-0.6,0.4-1.1c0.1-0.4,0.2-0.9,0.3-1.4c0.1-0.5,0.1-1,0.2-1.5s0.1-1,0.1-1.4c0-0.9-0.1-1.8-0.3-2.7
					s-0.5-1.5-0.8-1.9l7.2-1.2c0.4,0,0.6,0.1,0.9,0.2s0.3,0.4,0.3,0.6l-0.6,7.4C465.1,297.2,466.4,296.5,468,295.9L468,295.9z"/>
				<path class="st0" d="M532.6,312.9c0,1.6-0.6,3-1.7,4s-2.6,1.7-4.2,2l-11.9,2.8c-1.5,0-2.7-0.6-3.7-1.9c-1.2-1.3-1.7-2.9-1.7-4.8
					c0-0.9,0.2-1.8,0.6-2.7s1-1.7,1.7-2.6c0.5-0.7,1.3-1.6,2.3-2.7c1-1.1,2.1-2.3,3.2-3.5s2.2-2.4,3.2-3.5c1-1.1,1.7-2,2.1-2.6
					c0.9-1.2,1.4-2.1,1.4-2.9s-0.1-1.3-0.2-1.9c-0.1-0.5-0.4-1.1-0.9-1.6l7-1.4c0.5,0.3,0.8,0.7,0.9,1.2c0.1,0.5,0.2,1.1,0.2,1.5
					c0,0.5,0,1.1-0.1,1.7s-0.2,1.2-0.4,1.8s-0.4,1.2-0.7,1.7s-0.6,1-0.9,1.5c-0.7,0.8-1.4,1.7-2.2,2.6c-0.8,1-1.7,1.9-2.6,2.9
					c-0.9,1-1.8,2-2.7,2.9c-0.9,1-1.7,1.8-2.5,2.6c-0.5,0.6-1,1.3-1.5,2.1s-0.8,1.6-0.8,2.4c0,1.2,0.3,2.3,0.9,3.1s1.6,1.3,2.9,1.3
					c0.7,0,1.6-0.1,2.7-0.4c0.8-0.4,1.5-0.9,2-1.7s0.8-1.6,0.8-2.4s-0.1-1.5-0.4-2.2c-0.3-0.7-0.6-1.2-1-1.4l7.1-1.4
					c0.5,0.2,0.8,0.6,1.1,1.2C532.5,311.7,532.7,312.3,532.6,312.9L532.6,312.9z"/>
				<path class="st0" d="M593,319.8c-1.1,0.8-2.4,1.1-3.9,1.1c-0.7,0-1.5,0-2.2,0.1c-0.8,0.1-1.5,0.1-2.2,0.2s-1.5,0.2-2.1,0.2
					c-0.7,0.1-1.3,0.1-1.8,0.1c-0.4-0.2-0.8-0.5-1.1-0.9s-0.6-0.9-0.7-1.4l-1.4-9.1c-0.3-1.9-0.7-3.3-1-4.3c-0.3-1-0.6-1.8-0.8-2.2
					s-0.5-0.8-0.8-0.8s-0.6-0.1-1,0l-1.1,0.1c-1,2-1.8,3.7-2.4,5.1c-0.7,1.4-1.2,2.7-1.7,3.7s-0.8,1.9-1,2.5
					c-0.2,0.6-0.4,1.2-0.5,1.6c-0.1,0.4-0.2,0.8-0.2,1c0,0.2,0,0.5,0,0.6c0,0.6,0.2,1.2,0.6,1.7s0.8,0.8,1.3,0.9l-7.4,1.7
					c-0.5-0.4-0.8-0.9-1.2-1.6s-0.5-1.4-0.5-2c0-0.3,0-0.6,0.1-1s0.2-0.9,0.4-1.5c0.2-0.6,0.4-1.4,0.8-2.4c0.3-0.9,0.8-2.1,1.4-3.5
					c0.6-1.4,1.3-3,2.2-4.9c0.8-1.9,1.9-4.1,3.1-6.6l-5.3,1.5c0.2-0.3,0.3-0.6,0.5-1.2c0.1-0.5,0.2-1,0.1-1.5c0-0.5-0.1-1.1-0.1-1.7
					c-0.1-0.6-0.2-1.1-0.4-1.6c-0.2-0.5-0.5-1-0.8-1.4c-0.3-0.4-0.8-0.8-1.4-1l7.7-1.5c0.3,0.1,0.5,0.4,0.8,0.8s0.5,0.9,0.6,1.3
					l0.5,5.4l6.3-1.3l-3.3,6.1l7-1c1.1,0,1.9,0.4,2.5,1.1c0.6,0.7,1,1.8,1.3,3.3l1.1,6.7l4.9-0.6c1-0.1,1.8-0.1,2.3,0.1
					s1.1,0.5,1.4,0.9c0.3,0.4,0.6,1,0.7,1.6c0.1,0.7,0.2,1.5,0.3,2.4C594.6,318,594.1,319,593,319.8L593,319.8z M589.1,314.7
					c-0.2-0.5-0.3-0.9-0.5-1.2s-0.4-0.5-0.7-0.6c-0.2-0.1-0.5-0.2-0.8-0.2l-2.1,0.2l0.7,4.8c0.1,0.7,0.3,1.3,0.4,1.8
					c0.1,0.5,0.4,0.8,0.7,0.8c1.4,0,2.2-0.3,2.5-0.9c0.3-0.6,0.4-1.5,0.2-2.6C589.4,315.9,589.3,315.2,589.1,314.7L589.1,314.7z"/>
				<path class="st0" d="M647.5,305.9c-1.5-0.1-2.7-0.7-3.7-1.8s-1.6-2.6-1.9-4.2l-3.6,0.4l-1.3,16.4c0,0.3,0,0.6,0,1s0.1,0.7,0.1,1
					s0.2,0.6,0.3,0.8c0.2,0.2,0.3,0.3,0.6,0.3l2-0.3c0-0.8,0.2-1.4,0.5-2s0.7-1,1.2-1.3s1.1-0.6,1.8-0.8s1.5-0.3,2.2-0.3
					c0.8,0,1.4,0.1,1.8,0.2c-0.2,0.4-0.3,0.9-0.3,1.5c0,0.9,0.2,1.8,0.6,2.9s0.9,1.9,1.5,2.5c-1.1,0.3-2.1,0.5-3,0.7
					s-1.6,0.2-2.2,0.2c-1.1,0-2-0.2-2.6-0.6c-0.6-0.4-1.1-1.1-1.4-2.1l-8.5,1.4c-0.6-0.5-1.1-1.1-1.4-1.8s-0.5-1.8-0.5-3.1l1.5-16
					l-3.9,0.3c-0.1,1-0.4,1.9-0.8,2.7c-0.4,0.8-0.9,1.5-1.4,2.1c-0.5,0.6-1.2,1-1.8,1.4s-1.3,0.5-2,0.5c-0.9-0.1-1.7-0.3-2.4-0.8
					c0.5-0.7,0.9-1.4,1.2-1.9c0.2-0.5,0.4-1,0.4-1.5c0-0.1,0-0.2-0.1-0.5s-0.1-0.4-0.1-0.6c0-0.2-0.1-0.4-0.2-0.6
					c0-0.2-0.1-0.4-0.1-0.5c0-0.3,0.2-0.4,0.5-0.5l10.8-0.9l0.3-4.7c0-0.8-0.1-1.6-0.2-2.4s-0.5-1.3-1.1-1.5l7.5-1.4
					c0.3,0.3,0.6,0.5,0.7,0.9s0.2,0.7,0.1,1.1l-0.6,7.5l10.8-1c0.3,0,0.5,0.2,0.5,0.5c0,0.2,0,0.4-0.1,0.6c-0.1,0.3-0.1,0.5-0.2,0.8
					s-0.1,0.6-0.2,0.8c0,0.2-0.1,0.4-0.1,0.6c0,0.5,0.1,1,0.3,1.6c0.2,0.6,0.7,1.2,1.3,1.9C649.7,305.6,648.5,305.9,647.5,305.9
					L647.5,305.9z"/>
				<path class="st0" d="M684.9,303.8c0.2-1.9,0.7-3.5,1.4-4.8c0.8-1.3,1.8-2.3,3-3s2.7-1.3,4.3-1.6c1.7-0.3,3.5-0.5,5.4-0.5
					c1.2,0,2.3,0.1,3.3,0.4s1.8,0.7,2.5,1.3c0.7,0.6,1.2,1.5,1.5,2.7c0.3,1.1,0.5,2.6,0.4,4.4l-0.3,13.4c0,0.5,0,1.1,0,1.5
					c0,0.5,0.1,0.9,0.2,1.2c0.1,0.4,0.3,0.7,0.6,0.9s0.6,0.5,1.1,0.7l-7.3,1.2c-0.8-0.4-1.4-0.8-1.6-1.4s-0.4-1.2-0.4-2V318
					l0.4-18.1c0-2-0.2-3.3-0.7-4.1c-0.5-0.7-1.4-1.1-2.7-1.1c-0.7,0-1.2,0.2-1.7,0.7s-0.9,1.1-1.2,1.9c-0.3,0.8-0.6,1.7-0.7,2.8
					c-0.2,1.1-0.2,2.2-0.2,3.5v12.7c0,1.1,0.1,2,0.2,2.6c0.1,0.7,0.7,1.2,1.6,1.7l-7.4,1.1c-0.7-0.1-1.3-0.5-1.5-1.1
					s-0.4-1.4-0.4-2.3l0.1-13.5l-2,0.3c0.1,1.6-0.2,3-0.8,4c-0.6,1-1.5,1.7-2.9,2.1c-0.6,0.2-1.2,0.2-1.8,0.3
					c-0.6,0-1.4-0.1-2.3-0.2c0.2-0.5,0.4-0.9,0.5-1.2s0.3-0.6,0.3-0.8c0.1-0.2,0.1-0.4,0.1-0.6c0-0.2,0-0.5-0.1-0.7
					c-0.1-0.2-0.2-0.5-0.2-1c-0.1-0.5-0.2-0.8-0.4-1.1c-0.1-0.2-0.1-0.4,0-0.6c0.1-0.2,0.2-0.3,0.3-0.5L684.9,303.8L684.9,303.8z
					 M708.3,293.8c-0.3,0-0.7,0.1-1,0.1s-0.7,0.1-1.1,0.1c-0.3,0-0.6,0-0.8,0c-1.1-0.1-2-0.3-2.7-0.8s-1.1-1.3-1.3-2.5l-11.2,0.3
					c-0.1,0.6-0.3,1.2-0.7,1.7c-0.4,0.5-0.9,0.9-1.5,1.1c-0.7,0.3-1.5,0.4-2.6,0.4s-2,0-3-0.1c0.6-0.4,1.1-1,1.3-1.8
					s0.4-1.6,0.4-2.3c0.1-0.6,0-1.1-0.3-1.5c-0.3-0.4-0.6-0.8-1.1-1.2c1.2-0.1,2.3-0.2,3.2-0.3s1.7-0.1,2.3,0.1
					c0.6,0.1,1.1,0.5,1.4,0.9s0.5,1.2,0.6,2.2l11-0.3c0-0.7,0.2-1.3,0.5-1.8s0.7-0.8,1.2-1c0.5-0.2,1.3-0.4,2.1-0.4
					c0.9,0,1.9,0,3.2,0c-0.3,0.4-0.5,0.8-0.6,1.2c-0.1,0.4-0.2,0.9-0.2,1.5c0,1.7,0.5,3.2,1.5,4.4
					C708.9,293.8,708.6,293.8,708.3,293.8L708.3,293.8z"/>
				<path class="st0" d="M781.4,296.6c-0.4,1.2-0.9,2.6-1.6,4.2s-1.3,3.4-2.1,5.2c-0.7,1.8-1.4,3.6-2.1,5.1c-0.6,1.6-1.2,3-1.6,4.1
					c-0.4,1.1-0.6,1.8-0.6,1.9c0,0.5,0,1.1,0.1,1.7c0.1,0.6,0.4,1.1,0.9,1.5l-7.1,1.4c-0.5,0-0.9-0.3-1.2-0.9
					c-0.4-0.6-0.5-1.5-0.5-2.6c0-0.5,0.2-1.1,0.4-1.8s0.6-1.7,1-2.8s1-2.4,1.7-3.9c0.7-1.5,1.4-3.3,2.3-5.3l-8,1.1c-2,0-3-1-3-3.1
					c0-0.1,0-0.5,0.1-1s0.2-1.1,0.3-1.7s0.2-1.2,0.3-1.7c0.1-0.5,0.1-0.9,0.1-1.1c0-0.7,0-1.3,0-1.7c0-0.4-0.1-0.8-0.2-1.1
					c-0.1-0.3-0.3-0.6-0.5-0.9c-0.2-0.3-0.5-0.6-0.8-1l7.7-1.5c1,0.5,1.5,1.8,1.5,4c0,0.3-0.1,0.7-0.2,1.4c-0.1,0.7-0.2,1.4-0.4,2.1
					c-0.1,0.7-0.2,1.4-0.4,2c-0.1,0.6-0.2,1-0.2,1.1c0,1,0.3,1.6,0.9,1.8c0.6,0.2,1.7,0.3,3.2,0.4c0.3-0.6,0.7-1.3,1.1-2.1
					s0.7-1.7,1.1-2.5s0.6-1.6,0.8-2.3c0.2-0.7,0.3-1.2,0.3-1.5c0-0.9-0.1-1.7-0.3-2.4c-0.2-0.7-0.5-1.2-1-1.3l7.2-1.5
					c0.4,0.5,0.7,1.2,0.9,2s0.3,1.7,0.3,2.6C782,294.7,781.8,295.5,781.4,296.6L781.4,296.6z"/>
				<path class="st0" d="M834.5,321.6c-0.8-0.5-1.4-1-1.6-1.7s-0.4-1.4-0.4-2.3v-0.1l0.4-20.9c0-1.1,0-2.1-0.1-2.8
					c-0.1-0.8-0.3-1.4-0.5-1.8c-0.2-0.5-0.6-0.8-1-1c-0.4-0.2-1-0.3-1.7-0.3s-1.2,0.3-1.7,0.8s-0.9,1.3-1.2,2.2
					c-0.3,0.9-0.6,2-0.7,3.2c-0.2,1.2-0.2,2.5-0.2,3.9v14.7c0,1.2,0.1,2.2,0.2,3.1c0.1,0.8,0.7,1.5,1.6,2l-7.4,1.2
					c-0.7-0.2-1.3-0.6-1.5-1.3s-0.4-1.5-0.4-2.6l0.1-14.2v0l-3,0.4c0.1,1.7-0.2,3.1-0.8,4.3s-1.5,2-2.9,2.4
					c-0.5,0.2-1.1,0.2-1.7,0.3s-1.4-0.1-2.3-0.2c0.4-1,0.7-1.7,0.8-2.3c0.2-0.6,0.2-1.1,0-1.6c0-0.2-0.1-0.6-0.2-1
					c-0.1-0.4-0.2-0.8-0.4-1.1c-0.1-0.2-0.1-0.4,0-0.5s0.2-0.3,0.3-0.5l10.2-1.1c0.1-4.4,1.2-7.6,3.3-9.6c1.1-1.1,2.6-1.9,4.4-2.4
					c1.9-0.5,4-0.8,6.4-0.8c1.2,0,2.3,0.1,3.3,0.4c1,0.3,1.8,0.8,2.5,1.5c0.7,0.7,1.2,1.8,1.5,3.1c0.3,1.3,0.5,3,0.5,5.1l-0.4,15.5
					c0,1.2,0.1,2.3,0.2,3.1s0.7,1.5,1.7,1.9L834.5,321.6L834.5,321.6z"/>
				<path class="st0" d="M925.9,322.8c-1.1,0-2-0.2-2.6-0.6c-0.6-0.4-1-1.1-1.3-2.1l-9,1.8c-0.4-0.3-0.6-0.6-0.8-0.9s-0.4-0.6-0.5-1
					c-0.1-0.4-0.3-0.8-0.4-1.3c-0.1-0.5-0.2-1.1-0.4-1.8l-1-6.2c-0.4-1.9-0.7-3.5-1-4.5s-0.6-1.9-0.8-2.4c-0.3-0.5-0.6-0.8-0.8-0.9
					c-0.3-0.1-0.6-0.1-1-0.1l-1.1,0.1c-1,2-1.8,3.7-2.4,5.1c-0.7,1.4-1.2,2.7-1.7,3.7s-0.8,1.9-1,2.5c-0.2,0.6-0.4,1.2-0.5,1.6
					c-0.1,0.4-0.2,0.8-0.2,1c0,0.2,0,0.5,0,0.6c0,0.6,0.2,1.2,0.6,1.7s0.8,0.8,1.3,0.9l-7.4,1.7c-0.5-0.4-0.8-0.9-1.2-1.6
					s-0.5-1.4-0.5-2c0-0.3,0-0.6,0.1-1s0.2-0.9,0.4-1.5c0.2-0.6,0.4-1.4,0.8-2.4c0.3-0.9,0.8-2.1,1.4-3.5c0.6-1.4,1.3-3,2.2-4.9
					c0.8-1.9,1.9-4.1,3.1-6.6l-5.3,1.5c0.2-0.3,0.3-0.6,0.5-1.2c0.1-0.5,0.2-1,0.1-1.5c0-0.5-0.1-1.1-0.1-1.7
					c-0.1-0.6-0.2-1.1-0.4-1.6c-0.2-0.5-0.5-1-0.8-1.4c-0.3-0.4-0.8-0.8-1.4-1l7.7-1.5c0.3,0.1,0.5,0.4,0.8,0.8s0.5,0.9,0.6,1.3
					l0.5,5.4l6.3-1.3l-3.3,6.1l7-1c1.1,0,1.9,0.4,2.5,1.1c0.6,0.7,1,1.8,1.3,3.3l1.9,9.9c0.1,0.5,0.2,1,0.3,1.5s0.3,0.9,0.4,1.3
					s0.4,0.7,0.6,1c0.2,0.3,0.5,0.4,0.8,0.4l1.7-0.4c0-0.8,0.2-1.4,0.5-2s0.7-1,1.2-1.3c0.5-0.3,1.1-0.6,1.8-0.8
					c0.7-0.2,1.4-0.3,2.2-0.3c0.8,0,1.4,0.1,1.8,0.3c-0.2,0.4-0.3,0.8-0.3,1.5c0,0.9,0.2,1.8,0.6,2.8c0.4,1,0.9,1.9,1.5,2.5
					C928.9,322.4,927.2,322.7,925.9,322.8L925.9,322.8z"/>
				<path class="st0" d="M983.5,307.7c-0.7,0-1.4-0.2-2-0.5s-1.2-0.8-1.7-1.3s-0.9-1.2-1.2-1.9c-0.3-0.7-0.5-1.5-0.7-2.3l-3.6,0.4
					l-1.2,15c0,0.4,0,0.7,0,1s0.1,0.7,0.2,1s0.3,0.7,0.5,1c0.2,0.3,0.5,0.6,1,0.9l-6.9,1.1c-0.7-0.4-1.1-1-1.4-1.8
					c-0.3-0.8-0.5-1.8-0.5-3l1.5-14.6l-3.9,0.3c-0.1,1-0.4,1.9-0.8,2.7c-0.4,0.8-0.9,1.5-1.4,2.1s-1.2,1-1.8,1.4
					c-0.7,0.3-1.3,0.5-2,0.5c-0.9-0.1-1.7-0.4-2.3-0.9c0.5-0.7,0.9-1.3,1.2-1.9c0.2-0.5,0.3-1,0.4-1.5c0-0.2-0.1-0.5-0.2-1.1
					c-0.2-0.5-0.2-0.9-0.2-1.2c0-0.3,0.2-0.4,0.5-0.5l10.8-0.9l0.4-4.3c0-0.5,0-1.1-0.1-1.7s-0.2-1.1-0.5-1.5l-8.4,1.2
					c-0.2-0.2-0.3-0.3-0.4-0.5c-0.1-0.1-0.2-0.3-0.2-0.6c0.1-0.3,0.3-0.7,0.4-1.1c0.1-0.5,0.2-0.8,0.3-1.1c0-0.5,0-1-0.2-1.5
					s-0.6-1.1-1.1-2c0.9-0.3,1.7-0.5,2.3-0.6s1.2-0.1,1.7-0.1c0.7,0.1,1.2,0.2,1.7,0.4c0.5,0.2,0.9,0.5,1.2,0.9s0.6,1,0.8,1.6
					c0.2,0.7,0.4,1.6,0.6,2.6l8-1.4c0.3,0.3,0.6,0.5,0.7,0.9s0.2,0.7,0.1,1.1l-0.6,7l10.8-1c0.3,0,0.5,0.2,0.5,0.5
					c0,0.1,0,0.3-0.1,0.6s-0.1,0.5-0.2,0.8s-0.1,0.6-0.1,0.8c0,0.3-0.1,0.4-0.1,0.5c0,0.5,0.1,1.1,0.3,1.6c0.3,0.6,0.7,1.2,1.3,1.9
					C985.8,307.4,984.6,307.7,983.5,307.7L983.5,307.7z"/>
				<path class="st0" d="M1042.8,302.6c-0.6,0.1-1.2,0.2-1.7,0.2c-1.4-0.1-2.4-0.5-3.2-1.3s-1.2-2.2-1.4-4.2l-2.9,0.5
					c0,0.6-0.2,1.2-0.5,1.7c-0.3,0.5-0.7,1-1.1,1.5c-0.8,0.8-2.1,1.6-3.9,2.2c-1.8,0.7-4.2,1.2-7.2,1.6c1.1,0.6,1.9,1.4,2.4,2.2
					s0.7,1.8,0.7,3l-0.5,6.3c0,0.9,0.1,1.6,0.3,2.2c0.2,0.6,0.7,1.1,1.5,1.6l-7.4,1.5c-0.7-0.4-1.1-0.8-1.3-1.3s-0.4-1.2-0.4-2.1
					l0.4-6.4c0-0.4-0.1-0.8-0.3-1.2c-0.2-0.4-0.5-0.9-1-1.5c-0.4-0.6-0.8-1.3-1.1-1.8s-0.6-1.2-0.8-1.8s-0.4-1.3-0.5-2
					s-0.2-1.5-0.2-2.4c0-1.2,0.2-2.4,0.5-3.6c0.3-1.2,1-2.3,2-3.4c0.9-1.1,2.3-2.1,4.2-2.8c1.9-0.8,4.3-1.2,7.2-1.3l2,0
					c1.8,0,3.1,0.3,3.9,0.9c0.8,0.6,1.2,1.8,1.3,3.6c0,1-0.1,1.9-0.1,2.6l9.6-1.6c0.2,0.1,0.3,0.3,0.4,0.4s0.2,0.3,0.2,0.5
					c0,0.1,0,0.1,0,0.2c0,0.1-0.1,0.2-0.1,0.4c-0.1,0.3-0.2,0.6-0.3,0.9c-0.1,0.2-0.1,0.5-0.1,0.7c0,0.5,0.1,1.1,0.3,1.5
					s0.6,1.1,1.2,1.9C1044.1,302.2,1043.4,302.4,1042.8,302.6L1042.8,302.6z M1024.2,302.2c0.9-0.9,1.5-1.8,1.9-2.8
					c0.4-0.9,0.6-1.7,0.7-2.5c0.1-0.8,0.1-1.6,0.1-2.6c0-1.3-0.1-2.2-0.4-2.7c-0.2-0.5-0.7-0.8-1.4-0.8c-0.7,0-1.3,0.3-2,0.7
					c-0.7,0.5-1.1,1-1.5,1.6c-0.5,1.1-0.9,2.3-1.2,3.4s-0.4,2.2-0.4,3.3c0,0.6,0.1,1.4,0.2,2.2s0.3,1.5,0.4,2.1
					C1022.1,303.8,1023.3,303.1,1024.2,302.2L1024.2,302.2z"/>
				<path class="st0" d="M1098.8,306.5c-0.6,0.2-1.2,0.3-1.7,0.3c-1.4,0-2.5-0.4-3.3-1.2c-0.8-0.8-1.3-2.3-1.6-4.4l-1.8,0.3
					c-0.1,0.6-0.3,1.1-0.6,1.7c-0.3,0.5-0.8,1.1-1.4,1.7s-1.4,1.2-2.3,1.8c-0.9,0.6-2,1.4-3.3,2.2l5.6-0.7c0.9-0.1,1.7,0.1,2.3,0.8
					c0.7,0.6,1,1.5,1.2,2.7l0.5,5.7c0.1,0.8,0.2,1.4,0.4,1.8c0.2,0.4,0.6,0.8,1.1,1.3l-6.9,1.3c-0.3,0-0.5-0.1-0.7-0.3
					s-0.4-0.5-0.6-0.8s-0.3-0.7-0.4-1.1c-0.1-0.4-0.2-0.8-0.2-1.2l-0.4-4.7c-0.1-1.3-0.4-2.2-0.7-3c-0.3-0.7-0.9-1.1-1.6-1.1
					c-0.1,0-0.4,0.2-1,0.7c-0.6,0.5-1.2,1.1-1.8,1.9c-0.7,0.8-1.2,1.7-1.7,2.7c-0.5,1-0.8,2.1-0.8,3.1c0,0.4,0.1,0.8,0.3,1.3
					s0.6,0.9,1.3,1.2l-7.1,1.3c-0.5-0.2-0.9-0.5-1.2-1.1c-0.3-0.5-0.5-1-0.5-1.5c0-0.9,0.1-1.9,0.4-2.9s0.8-2.1,1.5-3.2
					s1.7-2.2,2.9-3.2c1.2-1.1,2.7-2.1,4.6-3.2l-5.3,0.6c-1.2,0.2-2.1-0.2-2.7-1s-0.9-2.1-0.9-3.7c0-1,0.2-1.8,0.6-2.5
					s0.9-1.3,1.5-1.8c0.6-0.5,1.3-0.9,2.1-1.2s1.6-0.6,2.3-0.8l0.2-3.2c0.1-1.2-0.3-2-1.3-2.3l7.3-0.8c0.3,0,0.7,0.1,0.9,0.4
					c0.2,0.2,0.4,0.7,0.4,1.4l-0.3,4c0.9,0,1.7,0.1,2.5,0.3s1.4,0.5,2,1c0.6,0.4,1.1,1,1.4,1.6c0.3,0.7,0.5,1.4,0.5,2.2l8.7-1.8
					c0.4,0.3,0.6,0.6,0.6,0.9c0,0.1,0,0.1,0,0.2s-0.1,0.2-0.1,0.4c-0.2,0.7-0.2,1.3-0.2,1.6c0,0.5,0.1,1.1,0.4,1.6s0.7,1.2,1.3,2
					C1100.2,306.1,1099.4,306.4,1098.8,306.5L1098.8,306.5z M1083.4,299.4c0-0.6-0.1-1.1-0.2-1.6c-0.2-0.4-0.4-0.8-0.8-1
					c-0.4-0.3-0.8-0.4-1.4-0.4c-0.4,0-0.9,0.2-1.3,0.5s-0.8,0.8-1.1,1.3s-0.7,1.2-0.9,2c-0.2,0.8-0.4,1.6-0.5,2.4
					c0,0.4,0,0.7,0.1,1.1c0.1,0.4,0.2,0.7,0.3,1c0.2,0.3,0.4,0.6,0.7,0.8s0.6,0.3,0.9,0.3c0.5,0,1-0.1,1.5-0.4s0.9-0.6,1.3-1
					s0.7-0.9,0.9-1.4s0.4-1.1,0.5-1.6C1083.3,300.6,1083.3,300,1083.4,299.4L1083.4,299.4z"/>
				<path class="st0" d="M1132.2,303.5c0-1.7,0.2-3.2,0.5-4.7s0.9-2.8,1.9-4.1c1-1.3,2.5-2.4,4.4-3.2c1.9-0.9,4.4-1.4,7.5-1.5
					l2.2-0.1c2,0,3.4,0.3,4.2,1s1.2,2,1.2,3.9c0,1.7-0.1,3.1-0.4,4.2s-0.8,2.1-1.7,3c-0.9,0.9-2.2,1.8-4.1,2.4s-4.5,1.3-7.8,1.7
					c0.1,0.5,0.3,1,0.5,1.5c0.2,0.5,0.4,1.1,0.6,1.6c0.2,0.5,0.4,1,0.6,1.5s0.3,0.8,0.5,1.1c0.1,0.2,0.3,0.5,0.5,0.9
					s0.5,0.9,0.8,1.3c0.3,0.5,0.6,1,0.9,1.5c0.3,0.5,0.7,1.1,1,1.6l-9.8,4.5c-0.2,1.4-0.6,2.5-1.2,3.4c-0.6,0.9-1.3,1.5-2.1,2
					s-1.8,0.8-2.8,0.9c-1.1,0.2-2.2,0.2-3.4,0.2c0.6-0.5,1-1.1,1.3-1.9s0.5-1.5,0.5-2.2s-0.1-1.4-0.4-1.9s-0.7-1.1-1.3-1.5
					c0.3-0.5,0.9-1,2-1.5c0.5-0.2,1.1-0.4,1.7-0.5c0.6-0.1,1.2-0.2,1.7-0.2c0.8,0,1.5,0.2,2.2,0.6s1,0.9,1.2,1.7l3.3-1.5
					c-0.8-0.9-1.6-2-2.3-3.2c-0.7-1.2-1.4-2.5-1.9-3.9C1132.7,309.2,1132.2,306.4,1132.2,303.5L1132.2,303.5z M1140,305.1
					c1.7,0,3-0.5,3.8-1.3s1.6-1.8,2-2.9s0.7-2.1,0.8-3.1c0.1-1,0.1-2,0.1-3.1c0-1.3-0.2-2.2-0.5-2.8s-0.8-0.9-1.5-0.9
					c-0.6,0.1-1.2,0.4-1.9,0.9s-1.2,1-1.5,1.6c-0.3,0.5-0.6,1.2-0.8,2c-0.2,0.8-0.4,1.6-0.6,2.4s-0.3,1.7-0.3,2.6
					c-0.1,0.9-0.1,1.6-0.1,2.4c0,0.4,0,0.8,0.1,1.2S1139.9,304.8,1140,305.1L1140,305.1z"/>
			</g>
			<path class="st1" d="M374.8,279.7c4.5,0,9,0.3,13.5,0.8c-24.8,99.6-123.2,159.6-219.8,134S13.6,287.6,38.4,188
				C63.2,88.4,161.6,28.4,258.2,54c63.8,16.9,113.7,68.2,130,134c-32.3,4-64.7-6.5-88.9-29c-3.3-4-6.9-7.8-10.8-11.3
				c-46.4-42.9-117.7-39-159.3,8.8s-37.8,121.3,8.5,164.2c42.9,39.7,107.9,39.7,150.8,0c3.8-3.5,7.3-7.3,10.6-11.3
				C320,290.2,346.9,279.6,374.8,279.7L374.8,279.7z"/>
			<path class="st1" d="M437.8,234.2c0,25.1-19.7,45.4-44.1,45.4c-1.8,0-3.6-0.1-5.4-0.3c7.1-29.6,7.1-60.6,0-90.2
				c1.8-0.2,3.6-0.3,5.4-0.3C418.1,188.8,437.8,209.2,437.8,234.2L437.8,234.2z"/>
			<path class="st1" d="M458.2,211.6c2.9-5.6,7.3-10.1,12.7-13.2c5.6-3.2,12-4.9,18.5-4.8c7.8-0.2,15.4,2.2,21.7,6.9
				c6,4.6,10.2,11.3,11.9,18.8h-19c-1.3-2.9-3.4-5.4-6-7c-2.7-1.6-5.7-2.5-8.8-2.4c-4.9-0.2-9.6,1.8-12.9,5.6
				c-3.4,4.4-5.1,9.9-4.8,15.5c-0.3,5.6,1.5,11,5,15.3c3.3,3.8,8,5.8,12.9,5.6c3.1,0.1,6.2-0.8,8.8-2.4c2.6-1.6,4.6-4,5.8-6.8h19
				c-1.7,7.5-6,14.1-12,18.7c-6.3,4.7-13.9,7.1-21.7,6.8c-6.4,0.1-12.8-1.5-18.5-4.7c-5.3-3.1-9.7-7.6-12.7-13.2
				c-3.1-5.9-4.7-12.5-4.6-19.3C453.4,224.2,455.1,217.5,458.2,211.6L458.2,211.6z"/>
			<path class="st1" d="M568.8,267.6L554,240h-4.1v27.6h-17.3v-73.1h29c4.9-0.1,9.8,0.9,14.3,3c3.7,1.8,6.8,4.7,8.8,8.4
				c2,3.6,3,7.6,3,11.7c0.1,4.7-1.3,9.2-4,13c-3,4-7.2,6.8-11.9,8l16.3,29H568.8z M549.8,227.4h10.7c2.6,0.2,5.2-0.6,7.1-2.4
				c1.7-1.8,2.5-4.3,2.4-6.8c0.1-2.4-0.8-4.8-2.4-6.5c-2-1.7-4.5-2.6-7.1-2.4h-10.7V227.4L549.8,227.4z"/>
			<polygon class="st1" points="614.7,208.7 614.7,223.5 637.8,223.5 637.8,237.3 614.7,237.3 614.7,253.3 640.9,253.3 640.9,267.6 
				597.5,267.6 597.5,194.5 640.9,194.5 640.9,208.7 			"/>
			<path class="st1" d="M695.2,254.7h-26.5l-4.2,12.9h-18.1l25.7-73.1h20l25.7,73.1h-18.3L695.2,254.7L695.2,254.7L695.2,254.7z
				 M690.8,240.8L690.8,240.8l-8.8-26.8l-8.7,26.8H690.8z"/>
			<polygon class="st1" points="775.6,194.5 775.6,208.7 756.8,208.7 756.8,267.6 739.5,267.6 739.5,208.7 720.7,208.7 720.7,194.5 
							"/>
			<rect x="783.3" y="194.5" class="st0" width="17.2" height="73.1"/>
			<polygon class="st1" points="878.6,194.5 853.5,267.6 831.7,267.6 806.7,194.5 825.1,194.5 842.7,249.6 860.3,194.5 			"/>
			<polygon class="st1" points="902,208.7 902,223.5 925.2,223.5 925.2,237.3 902,237.3 902,253.3 928.2,253.3 928.2,267.6 
				884.8,267.6 884.8,194.5 928.2,194.5 928.2,208.7 			"/>
			<polygon class="st1" points="1020.2,194.5 1020.2,267.6 1003.1,267.6 1003.1,237.5 976.2,237.5 976.2,267.6 958.9,267.6 
				958.9,194.5 976.2,194.5 976.2,223.1 1003.1,223.1 1003.1,194.5 			"/>
			<path class="st1" d="M1048.6,194.5v43.7c-0.2,3.7,1,7.3,3.3,10.1c2.4,2.5,5.8,3.8,9.2,3.5c3.4,0.2,6.8-1,9.3-3.5
				c2.3-2.8,3.5-6.4,3.2-10.1v-43.7h17.3V238c0.2,5.8-1.2,11.5-4,16.6c-2.6,4.4-6.4,7.9-10.8,10.2c-4.8,2.3-9.9,3.5-15.2,3.4
				c-5.2,0.1-10.3-1.1-15-3.4c-4.4-2.2-8.1-5.7-10.6-10c-2.7-5.1-4.1-10.9-3.8-16.8v-43.6H1048.6L1048.6,194.5z"/>
			<path class="st1" d="M1154.7,236.4c5.8,8,4.7,19.2-2.5,25.8c-5,3.9-11.1,5.8-17.3,5.4h-33v-73.1h31.9c6-0.4,12,1.4,16.9,5.1
				c4.1,3.3,6.3,8.5,6.1,13.8c0.1,3.8-1,7.6-3.3,10.6c-2.2,2.9-5.3,4.9-8.7,5.9C1148.7,230.8,1152.3,233.1,1154.7,236.4
				L1154.7,236.4L1154.7,236.4z M1119.2,224.1h11.4c2.3,0.2,4.6-0.5,6.5-1.9c1.6-1.4,2.4-3.5,2.3-5.6c0.1-2.2-0.7-4.3-2.3-5.7
				c-1.9-1.4-4.2-2.1-6.5-2h-11.3L1119.2,224.1L1119.2,224.1L1119.2,224.1z M1138.6,251.2L1138.6,251.2c1.7-1.5,2.5-3.6,2.4-5.9
				c0.1-2.3-0.8-4.5-2.5-6c-1.9-1.6-4.4-2.4-6.8-2.2h-12.5v16.2h12.7c2.4,0.2,4.9-0.5,6.8-2.1L1138.6,251.2z"/>
			<g>
				<path class="st0" d="M471.5,170.9l-10.1-13.3v13.3H454v-30.2h7.4v13.3l10.1-13.3h8.6l-11.7,14.8l12.1,15.4H471.5L471.5,170.9z"
					/>
				<path class="st0" d="M493.5,140.6v30.2h-7.4v-30.2H493.5z"/>
				<path class="st0" d="M516.3,170.9l-6.3-11.4h-1.8v11.4H501v-30.2h12.3c2.4,0,4.4,0.4,6.1,1.2s2.9,2,3.8,3.4s1.2,3.1,1.2,4.8
					c0,2-0.6,3.8-1.7,5.4s-2.8,2.7-5,3.4l7,12H516.3L516.3,170.9z M508.3,154.2h4.6c1.3,0,2.4-0.3,3-1c0.7-0.7,1-1.6,1-2.8
					s-0.3-2.1-1-2.7s-1.7-1-3-1h-4.6L508.3,154.2L508.3,154.2z"/>
				<path class="st0" d="M538.5,146.5v6.1h9.8v5.7h-9.8v6.6h11.1v5.9h-18.5v-30.2h18.5v5.9L538.5,146.5L538.5,146.5z"/>
				<path class="st0" d="M563.8,146.5v6.1h9.8v5.7h-9.8v6.6H575v5.9h-18.5v-30.2H575v5.9L563.8,146.5L563.8,146.5z"/>
				<path class="st0" d="M603.6,140.6v5.9h-8v24.3h-7.4v-24.3h-8v-5.9L603.6,140.6L603.6,140.6z"/>
				<path class="st0" d="M616.8,140.6v30.2h-7.3v-30.2H616.8z"/>
				<path class="st0" d="M631.6,140.6v30.2h-7.3v-30.2H631.6z"/>
				<path class="st0" d="M667.4,140.6l-10.7,30.2h-9.2l-10.7-30.2h7.8l7.5,22.8l7.5-22.8H667.4z"/>
				<path class="st0" d="M716.9,140.6v30.2h-7.3v-12.4h-11.4v12.4h-7.3v-30.2h7.3v11.8h11.4v-11.8H716.9z"/>
				<path class="st0" d="M743.1,165.5h-11.3l-1.8,5.3h-7.7l10.9-30.2h8.5l10.9,30.2h-7.8L743.1,165.5L743.1,165.5z M741.2,159.8
					l-3.7-11.1l-3.7,11.1H741.2z"/>
				<path class="st0" d="M776.9,165.5h-11.3l-1.8,5.3h-7.7l10.9-30.2h8.5l10.9,30.2h-7.8L776.9,165.5L776.9,165.5z M775,159.8
					l-3.7-11.1l-3.7,11.1H775z"/>
				<path class="st0" d="M814.4,158c1.1,1.4,1.6,2.9,1.6,4.7c0,2.5-0.9,4.5-2.6,6c-1.8,1.5-4.2,2.2-7.4,2.2H792v-30.2h13.6
					c3.1,0,5.5,0.7,7.2,2.1c1.7,1.4,2.6,3.3,2.6,5.7c0,1.8-0.5,3.3-1.4,4.4c-0.9,1.2-2.2,2-3.7,2.4C812,155.7,813.4,156.6,814.4,158
					L814.4,158z M799.3,152.9h4.8c1.2,0,2.1-0.3,2.8-0.8s1-1.3,1-2.4s-0.3-1.8-1-2.4c-0.7-0.6-1.6-0.8-2.8-0.8h-4.8V152.9
					L799.3,152.9z M807.6,164.1c0.7-0.6,1-1.4,1-2.4s-0.3-1.9-1-2.5c-0.7-0.6-1.7-0.9-2.9-0.9h-5.3v6.7h5.4
					C806,164.9,806.9,164.6,807.6,164.1L807.6,164.1z"/>
				<path class="st0" d="M829.8,140.6v30.2h-7.3v-30.2H829.8z"/>
				<path class="st0" d="M844.6,140.6v30.2h-7.3v-30.2H844.6z"/>
				<path class="st0" d="M877.6,140.6v30.2h-7.3v-30.2H877.6z"/>
				<path class="st0" d="M906.8,140.6v5.9h-8v24.3h-7.4v-24.3h-8v-5.9L906.8,140.6L906.8,140.6z"/>
				<path class="st0" d="M919,169.2c-2.4-1.3-4.2-3.2-5.6-5.5s-2.1-5-2.1-8s0.7-5.6,2.1-8s3.3-4.2,5.6-5.5c2.4-1.3,5-2,7.8-2
					s5.4,0.7,7.8,2c2.4,1.3,4.2,3.2,5.6,5.5c1.4,2.4,2,5,2,8s-0.7,5.6-2.1,8c-1.4,2.4-3.2,4.2-5.6,5.5c-2.3,1.3-5,2-7.8,2
					S921.4,170.5,919,169.2L919,169.2z M932.6,162c1.5-1.6,2.2-3.7,2.2-6.4s-0.7-4.8-2.2-6.4s-3.4-2.4-5.8-2.4s-4.4,0.8-5.8,2.4
					s-2.2,3.7-2.2,6.4s0.7,4.8,2.2,6.4s3.4,2.4,5.8,2.4S931.2,163.6,932.6,162z"/>
				<path class="st0" d="M955,169.2c-2.4-1.3-4.2-3.2-5.6-5.5s-2.1-5-2.1-8s0.7-5.6,2.1-8s3.3-4.2,5.6-5.5c2.4-1.3,5-2,7.8-2
					s5.4,0.7,7.8,2c2.4,1.3,4.2,3.2,5.6,5.5c1.4,2.4,2,5,2,8s-0.7,5.6-2.1,8c-1.4,2.4-3.2,4.2-5.6,5.5c-2.3,1.3-5,2-7.8,2
					S957.3,170.5,955,169.2L955,169.2z M968.6,162c1.5-1.6,2.2-3.7,2.2-6.4s-0.7-4.8-2.2-6.4s-3.4-2.4-5.8-2.4s-4.4,0.8-5.8,2.4
					s-2.2,3.7-2.2,6.4s0.7,4.8,2.2,6.4s3.4,2.4,5.8,2.4S967.1,163.6,968.6,162z"/>
				<path class="st0" d="M1006.2,155.2c-0.8,1.4-2,2.6-3.7,3.5c-1.7,0.9-3.7,1.3-6.2,1.3h-4.6v10.9h-7.3v-30.2h11.9
					c2.4,0,4.4,0.4,6.1,1.2c1.7,0.8,2.9,2,3.7,3.4s1.2,3.1,1.2,5C1007.4,152.1,1007,153.7,1006.2,155.2L1006.2,155.2z M998.9,153.2
					c0.7-0.7,1-1.6,1-2.8s-0.3-2.1-1-2.8s-1.7-1-3.1-1h-4v7.6h4C997.2,154.2,998.2,153.8,998.9,153.2L998.9,153.2z"/>
				<path class="st0" d="M1039.5,140.6v30.2h-7.4v-12.4h-11.4v12.4h-7.3v-30.2h7.3v11.8h11.4v-11.8H1039.5z"/>
				<path class="st0" d="M1054.3,140.6v30.2h-7.3v-30.2H1054.3z"/>
				<path class="st0" d="M1087.6,140.6l-10.4,20.2v10h-7.3v-10l-10.4-20.2h8.3l5.8,12.6l5.8-12.6H1087.6L1087.6,140.6z"/>
				<path class="st0" d="M1111.5,165.5h-11.3l-1.8,5.3h-7.7l10.9-30.2h8.5l10.9,30.2h-7.8L1111.5,165.5L1111.5,165.5z M1109.6,159.8
					l-3.7-11.1l-3.7,11.1H1109.6z"/>
				<path class="st0" d="M1145.3,165.5h-11.3l-1.8,5.3h-7.7l10.9-30.2h8.5l10.9,30.2h-7.8L1145.3,165.5L1145.3,165.5z M1143.4,159.8
					l-3.7-11.1l-3.7,11.1H1143.4z"/>
			</g>
		</g>
		<rect x="0.3" y="0.3" class="st2" width="1190.6" height="467.9"/>
	</g>
</g>
</svg>
